<svg width="160" height="160" viewBox="0 0 160 160" fill="none" xmlns="http://www.w3.org/2000/svg">
<rect width="160" height="160" fill="white"/>
<g filter="url(#filter0_i_10_16)">
<path d="M92.8196 24.0487C84.3608 24.0487 77.156 29.0447 74.2724 36.0789H57.1183C53.9617 36.0789 50.9344 37.2645 48.7024 39.3748C46.4704 41.485 45.2165 44.3472 45.2165 47.3316C45.2165 50.316 46.4704 53.1781 48.7024 55.2884C50.9344 57.3987 53.9617 58.5842 57.1183 58.5842H81.9156C85.1531 60.5986 88.9439 61.6718 92.8196 61.671C103.806 61.671 112.715 53.246 112.715 42.8618C112.715 32.4697 103.806 24.0487 92.8196 24.0487Z" fill="#354A52"/>
<path d="M90.3716 30.6724C83.3992 30.6724 77.4663 34.7855 75.0949 40.5829H60.9594C58.3573 40.5832 55.8619 41.5607 54.022 43.3002C52.1821 45.0398 51.1483 47.3991 51.1479 49.8592C51.1479 54.9776 55.5415 59.1355 60.9594 59.1355H81.3909C84.057 60.7963 87.1802 61.6807 90.373 61.6789C99.4288 61.6789 106.769 54.7382 106.769 46.1803C106.769 37.6145 99.4274 30.6789 90.3716 30.6789" fill="#243438"/>
<path d="M85.8889 44.4079C85.8889 47.4947 88.4733 50 91.6589 50C94.857 50 97.4484 47.4961 97.4484 44.4079C97.4484 41.3145 94.857 38.8079 91.6589 38.8079C88.4733 38.8079 85.8889 41.3145 85.8889 44.4079Z" fill="#56787F"/>
<path d="M72.068 85.1013H77.3536V105.858H72.068V85.1013ZM64.9536 105.858H59.1265L67.8706 78.2895H73.7018L64.9536 105.858Z" fill="#243438"/>
<path d="M83.4576 105.858H89.2888L80.5434 78.2895H74.7108L83.4576 105.858Z" fill="#243438"/>
<path d="M61.1445 81.7368H88.2799V94.5671H61.1445V81.7368ZM52.3142 78.9211L25.1802 84.4342V57.8289L52.3142 66.0974V78.9211Z" fill="#243438"/>
<path d="M43.726 57.8289H107.869V88.1579H43.726V57.8289Z" fill="#34484C"/>
<path d="M70.288 62.0934H99.3105V75.8171H70.288V62.0934ZM46.6332 76H48.8015V85.1026H46.6332V76ZM51.5988 76H53.7657V85.1026H51.5988V76ZM56.6062 76H58.7758V85.1026H56.6062V76Z" fill="#56787F"/>
<g style="mix-blend-mode:luminosity" opacity="0.73">
<g filter="url(#filter1_i_10_16)">
<path d="M53.6446 115.88H52.1596V107.765L53.0896 106.85H51.8746L49.8796 110.705H48.7996L46.8796 106.85H45.6796L46.6096 107.765V115.88H45.1246V105.53H47.7796L49.3246 108.935H49.5046L51.0796 105.53H53.6446V115.88ZM61.634 114.59L60.344 115.895H57.569L56.279 114.59V109.415L57.569 108.11H60.344L61.634 109.415V114.59ZM60.164 114.59V109.415H57.764V114.59H60.164ZM69.0852 113.825L67.0002 115.895H65.7852L63.7152 113.825V107.75L65.1852 109.235V113.585L66.4002 114.755L67.6002 113.585V109.235L69.0852 107.75V113.825ZM77.8668 115.895H76.3968V112.01H72.8718V115.895H71.3868V106.835L72.6918 105.53H77.8668V115.895ZM77.3268 106.835H72.8718V111.83L73.9968 110.705H76.3968V107.765L77.3268 106.835ZM86.0575 114.59L84.7825 115.895H82.1725V119.78H80.6875V108.11H82.1725V109.235L83.2525 108.11H84.7825L86.0575 109.415V114.59ZM84.5725 114.59V109.415H82.1725V115.715L83.2525 114.59H84.5725ZM93.9091 114.59L92.6341 115.895H90.0241V119.78H88.5391V108.11H90.0241V109.235L91.1041 108.11H92.6341L93.9091 109.415V114.59ZM92.4241 114.59V109.415H90.0241V115.715L91.1041 114.59H92.4241Z" fill="black"/>
</g>
<path d="M53.6446 115.88V116.38H54.1446V115.88H53.6446ZM52.1596 115.88H51.6596V116.38H52.1596V115.88ZM52.1596 107.765L51.809 107.408L51.6596 107.555V107.765H52.1596ZM53.0896 106.85L53.4403 107.206L54.3108 106.35H53.0896V106.85ZM51.8746 106.85V106.35H51.5704L51.4306 106.62L51.8746 106.85ZM49.8796 110.705V111.205H50.1839L50.3237 110.935L49.8796 110.705ZM48.7996 110.705L48.3521 110.928L48.4901 111.205H48.7996V110.705ZM46.8796 106.85L47.3272 106.627L47.1892 106.35H46.8796V106.85ZM45.6796 106.85V106.35H44.4585L45.329 107.206L45.6796 106.85ZM46.6096 107.765H47.1096V107.555L46.9603 107.408L46.6096 107.765ZM46.6096 115.88V116.38H47.1096V115.88H46.6096ZM45.1246 115.88H44.6246V116.38H45.1246V115.88ZM45.1246 105.53V105.03H44.6246V105.53H45.1246ZM47.7796 105.53L48.235 105.323L48.1018 105.03H47.7796V105.53ZM49.3246 108.935L48.8693 109.141L49.0025 109.435H49.3246V108.935ZM49.5046 108.935V109.435H49.8243L49.9585 109.145L49.5046 108.935ZM51.0796 105.53V105.03H50.76L50.6258 105.32L51.0796 105.53ZM53.6446 105.53H54.1446V105.03H53.6446V105.53ZM53.6446 115.38H52.1596V116.38H53.6446V115.38ZM52.6596 115.88V107.765H51.6596V115.88H52.6596ZM52.5103 108.121L53.4403 107.206L52.739 106.493L51.809 107.408L52.5103 108.121ZM53.0896 106.35H51.8746V107.35H53.0896V106.35ZM51.4306 106.62L49.4356 110.475L50.3237 110.935L52.3187 107.08L51.4306 106.62ZM49.8796 110.205H48.7996V111.205H49.8796V110.205ZM49.2472 110.482L47.3272 106.627L46.4321 107.073L48.3521 110.928L49.2472 110.482ZM46.8796 106.35H45.6796V107.35H46.8796V106.35ZM45.329 107.206L46.259 108.121L46.9603 107.408L46.0303 106.493L45.329 107.206ZM46.1096 107.765V115.88H47.1096V107.765H46.1096ZM46.6096 115.38H45.1246V116.38H46.6096V115.38ZM45.6246 115.88V105.53H44.6246V115.88H45.6246ZM45.1246 106.03H47.7796V105.03H45.1246V106.03ZM47.3243 105.736L48.8693 109.141L49.78 108.728L48.235 105.323L47.3243 105.736ZM49.3246 109.435H49.5046V108.435H49.3246V109.435ZM49.9585 109.145L51.5335 105.74L50.6258 105.32L49.0508 108.725L49.9585 109.145ZM51.0796 106.03H53.6446V105.03H51.0796V106.03ZM53.1446 105.53V115.88H54.1446V105.53H53.1446ZM61.634 114.59L61.9896 114.941L62.134 114.795V114.59H61.634ZM60.344 115.895V116.395H60.5528L60.6996 116.246L60.344 115.895ZM57.569 115.895L57.2134 116.246L57.3602 116.395H57.569V115.895ZM56.279 114.59H55.779V114.795L55.9234 114.941L56.279 114.59ZM56.279 109.415L55.9234 109.063L55.779 109.209V109.415H56.279ZM57.569 108.11V107.61H57.3602L57.2134 107.758L57.569 108.11ZM60.344 108.11L60.6996 107.758L60.5528 107.61H60.344V108.11ZM61.634 109.415H62.134V109.209L61.9896 109.063L61.634 109.415ZM60.164 114.59V115.09H60.664V114.59H60.164ZM60.164 109.415H60.664V108.915H60.164V109.415ZM57.764 109.415V108.915H57.264V109.415H57.764ZM57.764 114.59H57.264V115.09H57.764V114.59ZM61.2784 114.238L59.9884 115.543L60.6996 116.246L61.9896 114.941L61.2784 114.238ZM60.344 115.395H57.569V116.395H60.344V115.395ZM57.9246 115.543L56.6346 114.238L55.9234 114.941L57.2134 116.246L57.9246 115.543ZM56.779 114.59V109.415H55.779V114.59H56.779ZM56.6346 109.766L57.9246 108.461L57.2134 107.758L55.9234 109.063L56.6346 109.766ZM57.569 108.61H60.344V107.61H57.569V108.61ZM59.9884 108.461L61.2784 109.766L61.9896 109.063L60.6996 107.758L59.9884 108.461ZM61.134 109.415V114.59H62.134V109.415H61.134ZM60.664 114.59V109.415H59.664V114.59H60.664ZM60.164 108.915H57.764V109.915H60.164V108.915ZM57.264 109.415V114.59H58.264V109.415H57.264ZM57.764 115.09H60.164V114.09H57.764V115.09ZM69.0852 113.825L69.4374 114.18L69.5852 114.033V113.825H69.0852ZM67.0002 115.895V116.395H67.2062L67.3524 116.25L67.0002 115.895ZM65.7852 115.895L65.4316 116.248L65.578 116.395H65.7852V115.895ZM63.7152 113.825H63.2152V114.032L63.3616 114.178L63.7152 113.825ZM63.7152 107.75L64.0705 107.398L63.2152 106.534V107.75H63.7152ZM65.1852 109.235H65.6852V109.029L65.5405 108.883L65.1852 109.235ZM65.1852 113.585H64.6852V113.797L64.8383 113.945L65.1852 113.585ZM66.4002 114.755L66.0533 115.115L66.4023 115.451L66.7492 115.113L66.4002 114.755ZM67.6002 113.585L67.9492 113.943L68.1002 113.796V113.585H67.6002ZM67.6002 109.235L67.2466 108.881L67.1002 109.028V109.235H67.6002ZM69.0852 107.75H69.5852V106.543L68.7316 107.396L69.0852 107.75ZM68.7329 113.47L66.6479 115.54L67.3524 116.25L69.4374 114.18L68.7329 113.47ZM67.0002 115.395H65.7852V116.395H67.0002V115.395ZM66.1387 115.541L64.0687 113.471L63.3616 114.178L65.4316 116.248L66.1387 115.541ZM64.2152 113.825V107.75H63.2152V113.825H64.2152ZM63.3598 108.101L64.8298 109.586L65.5405 108.883L64.0705 107.398L63.3598 108.101ZM64.6852 109.235V113.585H65.6852V109.235H64.6852ZM64.8383 113.945L66.0533 115.115L66.747 114.395L65.532 113.225L64.8383 113.945ZM66.7492 115.113L67.9492 113.943L67.2511 113.227L66.0511 114.397L66.7492 115.113ZM68.1002 113.585V109.235H67.1002V113.585H68.1002ZM67.9537 109.588L69.4387 108.103L68.7316 107.396L67.2466 108.881L67.9537 109.588ZM68.5852 107.75V113.825H69.5852V107.75H68.5852ZM77.8668 115.895V116.395H78.3668V115.895H77.8668ZM76.3968 115.895H75.8968V116.395H76.3968V115.895ZM76.3968 112.01H76.8968V111.51H76.3968V112.01ZM72.8718 112.01V111.51H72.3718V112.01H72.8718ZM72.8718 115.895V116.395H73.3718V115.895H72.8718ZM71.3868 115.895H70.8868V116.395H71.3868V115.895ZM71.3868 106.835L71.0333 106.481L70.8868 106.628V106.835H71.3868ZM72.6918 105.53V105.03H72.4847L72.3383 105.176L72.6918 105.53ZM77.8668 105.53H78.3668V105.03H77.8668V105.53ZM77.3268 106.835L77.6804 107.188L78.5339 106.335H77.3268V106.835ZM72.8718 106.835V106.335H72.3718V106.835H72.8718ZM72.8718 111.83H72.3718V113.037L73.2254 112.183L72.8718 111.83ZM73.9968 110.705V110.205H73.7897L73.6433 110.351L73.9968 110.705ZM76.3968 110.705V111.205H76.8968V110.705H76.3968ZM76.3968 107.765L76.0433 107.411L75.8968 107.558V107.765H76.3968ZM77.8668 115.395H76.3968V116.395H77.8668V115.395ZM76.8968 115.895V112.01H75.8968V115.895H76.8968ZM76.3968 111.51H72.8718V112.51H76.3968V111.51ZM72.3718 112.01V115.895H73.3718V112.01H72.3718ZM72.8718 115.395H71.3868V116.395H72.8718V115.395ZM71.8868 115.895V106.835H70.8868V115.895H71.8868ZM71.7404 107.188L73.0454 105.883L72.3383 105.176L71.0333 106.481L71.7404 107.188ZM72.6918 106.03H77.8668V105.03H72.6918V106.03ZM77.3668 105.53V115.895H78.3668V105.53H77.3668ZM77.3268 106.335H72.8718V107.335H77.3268V106.335ZM72.3718 106.835V111.83H73.3718V106.835H72.3718ZM73.2254 112.183L74.3504 111.058L73.6433 110.351L72.5183 111.476L73.2254 112.183ZM73.9968 111.205H76.3968V110.205H73.9968V111.205ZM76.8968 110.705V107.765H75.8968V110.705H76.8968ZM76.7504 108.118L77.6804 107.188L76.9733 106.481L76.0433 107.411L76.7504 108.118ZM86.0575 114.59L86.4152 114.939L86.5575 114.793V114.59H86.0575ZM84.7825 115.895V116.395H84.9931L85.1402 116.244L84.7825 115.895ZM82.1725 115.895V115.395H81.6725V115.895H82.1725ZM82.1725 119.78V120.28H82.6725V119.78H82.1725ZM80.6875 119.78H80.1875V120.28H80.6875V119.78ZM80.6875 108.11V107.61H80.1875V108.11H80.6875ZM82.1725 108.11H82.6725V107.61H82.1725V108.11ZM82.1725 109.235H81.6725V110.478L82.5332 109.581L82.1725 109.235ZM83.2525 108.11V107.61H83.0394L82.8918 107.763L83.2525 108.11ZM84.7825 108.11L85.1402 107.76L84.9931 107.61H84.7825V108.11ZM86.0575 109.415H86.5575V109.211L86.4152 109.065L86.0575 109.415ZM84.5725 114.59V115.09H85.0725V114.59H84.5725ZM84.5725 109.415H85.0725V108.915H84.5725V109.415ZM82.1725 109.415V108.915H81.6725V109.415H82.1725ZM82.1725 115.715H81.6725V116.958L82.5332 116.061L82.1725 115.715ZM83.2525 114.59V114.09H83.0394L82.8918 114.243L83.2525 114.59ZM85.6999 114.24L84.4249 115.545L85.1402 116.244L86.4152 114.939L85.6999 114.24ZM84.7825 115.395H82.1725V116.395H84.7825V115.395ZM81.6725 115.895V119.78H82.6725V115.895H81.6725ZM82.1725 119.28H80.6875V120.28H82.1725V119.28ZM81.1875 119.78V108.11H80.1875V119.78H81.1875ZM80.6875 108.61H82.1725V107.61H80.6875V108.61ZM81.6725 108.11V109.235H82.6725V108.11H81.6725ZM82.5332 109.581L83.6132 108.456L82.8918 107.763L81.8118 108.888L82.5332 109.581ZM83.2525 108.61H84.7825V107.61H83.2525V108.61ZM84.4249 108.459L85.6999 109.764L86.4152 109.065L85.1402 107.76L84.4249 108.459ZM85.5575 109.415V114.59H86.5575V109.415H85.5575ZM85.0725 114.59V109.415H84.0725V114.59H85.0725ZM84.5725 108.915H82.1725V109.915H84.5725V108.915ZM81.6725 109.415V115.715H82.6725V109.415H81.6725ZM82.5332 116.061L83.6132 114.936L82.8918 114.243L81.8118 115.368L82.5332 116.061ZM83.2525 115.09H84.5725V114.09H83.2525V115.09ZM93.9091 114.59L94.2667 114.939L94.4091 114.793V114.59H93.9091ZM92.6341 115.895V116.395H92.8446L92.9917 116.244L92.6341 115.895ZM90.0241 115.895V115.395H89.5241V115.895H90.0241ZM90.0241 119.78V120.28H90.5241V119.78H90.0241ZM88.5391 119.78H88.0391V120.28H88.5391V119.78ZM88.5391 108.11V107.61H88.0391V108.11H88.5391ZM90.0241 108.11H90.5241V107.61H90.0241V108.11ZM90.0241 109.235H89.5241V110.478L90.3848 109.581L90.0241 109.235ZM91.1041 108.11V107.61H90.891L90.7434 107.763L91.1041 108.11ZM92.6341 108.11L92.9917 107.76L92.8446 107.61H92.6341V108.11ZM93.9091 109.415H94.4091V109.211L94.2667 109.065L93.9091 109.415ZM92.4241 114.59V115.09H92.9241V114.59H92.4241ZM92.4241 109.415H92.9241V108.915H92.4241V109.415ZM90.0241 109.415V108.915H89.5241V109.415H90.0241ZM90.0241 115.715H89.5241V116.958L90.3848 116.061L90.0241 115.715ZM91.1041 114.59V114.09H90.891L90.7434 114.243L91.1041 114.59ZM93.5515 114.24L92.2765 115.545L92.9917 116.244L94.2667 114.939L93.5515 114.24ZM92.6341 115.395H90.0241V116.395H92.6341V115.395ZM89.5241 115.895V119.78H90.5241V115.895H89.5241ZM90.0241 119.28H88.5391V120.28H90.0241V119.28ZM89.0391 119.78V108.11H88.0391V119.78H89.0391ZM88.5391 108.61H90.0241V107.61H88.5391V108.61ZM89.5241 108.11V109.235H90.5241V108.11H89.5241ZM90.3848 109.581L91.4648 108.456L90.7434 107.763L89.6634 108.888L90.3848 109.581ZM91.1041 108.61H92.6341V107.61H91.1041V108.61ZM92.2765 108.459L93.5515 109.764L94.2667 109.065L92.9917 107.76L92.2765 108.459ZM93.4091 109.415V114.59H94.4091V109.415H93.4091ZM92.9241 114.59V109.415H91.9241V114.59H92.9241ZM92.4241 108.915H90.0241V109.915H92.4241V108.915ZM89.5241 109.415V115.715H90.5241V109.415H89.5241ZM90.3848 116.061L91.4648 114.936L90.7434 114.243L89.6634 115.368L90.3848 116.061ZM91.1041 115.09H92.4241V114.09H91.1041V115.09Z" fill="black"/>
</g>
</g>
<defs>
<filter id="filter0_i_10_16" x="24" y="22" width="89.0688" height="101.78" filterUnits="userSpaceOnUse" color-interpolation-filters="sRGB">
<feFlood flood-opacity="0" result="BackgroundImageFix"/>
<feBlend mode="normal" in="SourceGraphic" in2="BackgroundImageFix" result="shape"/>
<feColorMatrix in="SourceAlpha" type="matrix" values="0 0 0 0 0 0 0 0 0 0 0 0 0 0 0 0 0 0 127 0" result="hardAlpha"/>
<feOffset dy="4"/>
<feGaussianBlur stdDeviation="2"/>
<feComposite in2="hardAlpha" operator="arithmetic" k2="-1" k3="1"/>
<feColorMatrix type="matrix" values="0 0 0 0 0 0 0 0 0 0 0 0 0 0 0 0 0 0 0.25 0"/>
<feBlend mode="normal" in2="shape" result="effect1_innerShadow_10_16"/>
</filter>
<filter id="filter1_i_10_16" x="45.1246" y="105.53" width="48.7845" height="18.25" filterUnits="userSpaceOnUse" color-interpolation-filters="sRGB">
<feFlood flood-opacity="0" result="BackgroundImageFix"/>
<feBlend mode="normal" in="SourceGraphic" in2="BackgroundImageFix" result="shape"/>
<feColorMatrix in="SourceAlpha" type="matrix" values="0 0 0 0 0 0 0 0 0 0 0 0 0 0 0 0 0 0 127 0" result="hardAlpha"/>
<feOffset dy="4"/>
<feGaussianBlur stdDeviation="2"/>
<feComposite in2="hardAlpha" operator="arithmetic" k2="-1" k3="1"/>
<feColorMatrix type="matrix" values="0 0 0 0 0 0 0 0 0 0 0 0 0 0 0 0 0 0 0.25 0"/>
<feBlend mode="normal" in2="shape" result="effect1_innerShadow_10_16"/>
</filter>
</defs>
</svg>
